<?xml version="1.0" encoding="UTF-8" standalone="no"?>
<!DOCTYPE svg PUBLIC "-//W3C//DTD SVG 1.1//EN"
 "http://www.w3.org/Graphics/SVG/1.1/DTD/svg11.dtd">
<!-- Generated by graphviz version 5.0.0 (20220707.1540)
 -->
<!-- Title: dependencies Pages: 1 -->
<svg width="1966pt" height="247pt"
 viewBox="0.00 0.00 1966.00 246.80" xmlns="http://www.w3.org/2000/svg" xmlns:xlink="http://www.w3.org/1999/xlink">
<g id="graph0" class="graph" transform="scale(1 1) rotate(0) translate(4 242.8)">
<title>dependencies</title>
<polygon fill="white" stroke="transparent" points="-4,4 -4,-242.8 1962,-242.8 1962,4 -4,4"/>
<text text-anchor="middle" x="979" y="-8.2" font-family="sans-serif" font-size="14.00">dependencies</text>
<g id="clust1" class="cluster">
<title>cluster_AppModule</title>
<polygon fill="none" stroke="black" stroke-dasharray="1,5" points="8,-32.8 8,-230.8 1950,-230.8 1950,-32.8 8,-32.8"/>
</g>
<g id="clust16" class="cluster">
<title>cluster_AppModule_providers</title>
<polygon fill="none" stroke="black" points="1654,-40.8 1654,-92.8 1942,-92.8 1942,-40.8 1654,-40.8"/>
</g>
<g id="clust15" class="cluster">
<title>cluster_AppModule_bootstrap</title>
<polygon fill="none" stroke="black" points="989,-170.8 989,-222.8 1113,-222.8 1113,-170.8 989,-170.8"/>
</g>
<g id="clust14" class="cluster">
<title>cluster_AppModule_exports</title>
<polygon fill="none" stroke="black" points="835,-170.8 835,-222.8 981,-222.8 981,-170.8 835,-170.8"/>
</g>
<g id="clust13" class="cluster">
<title>cluster_AppModule_imports</title>
<polygon fill="none" stroke="black" points="1502,-40.8 1502,-92.8 1646,-92.8 1646,-40.8 1502,-40.8"/>
</g>
<g id="clust2" class="cluster">
<title>cluster_AppModule_declarations</title>
<polygon fill="none" stroke="black" points="16,-40.8 16,-92.8 1494,-92.8 1494,-40.8 16,-40.8"/>
</g>
<!-- AddDeviceComponent -->
<g id="node1" class="node">
<title>AddDeviceComponent</title>
<polygon fill="#ffffb3" stroke="black" points="1485.58,-84.8 1340.42,-84.8 1340.42,-48.8 1485.58,-48.8 1485.58,-84.8"/>
<text text-anchor="middle" x="1413" y="-62.6" font-family="Times,serif" font-size="14.00">AddDeviceComponent</text>
</g>
<!-- AppModule -->
<g id="node11" class="node">
<title>AppModule</title>
<polygon fill="#8dd3c7" stroke="black" points="1020.66,-149.8 1017.66,-153.8 996.66,-153.8 993.66,-149.8 937.34,-149.8 937.34,-113.8 1020.66,-113.8 1020.66,-149.8"/>
<text text-anchor="middle" x="979" y="-127.6" font-family="Times,serif" font-size="14.00">AppModule</text>
</g>
<!-- AddDeviceComponent&#45;&gt;AppModule -->
<g id="edge1" class="edge">
<title>AddDeviceComponent&#45;&gt;AppModule</title>
<path fill="none" stroke="black" d="M1413,-85.02C1413,-103.63 1413,-129.8 1413,-129.8 1413,-129.8 1031.01,-129.8 1031.01,-129.8"/>
<polygon fill="black" stroke="black" points="1031.01,-126.3 1021.01,-129.8 1031.01,-133.3 1031.01,-126.3"/>
</g>
<!-- AppComponent -->
<g id="node2" class="node">
<title>AppComponent</title>
<polygon fill="#ffffb3" stroke="black" points="1322.94,-84.8 1217.06,-84.8 1217.06,-48.8 1322.94,-48.8 1322.94,-84.8"/>
<text text-anchor="middle" x="1270" y="-62.6" font-family="Times,serif" font-size="14.00">AppComponent</text>
</g>
<!-- AppComponent&#45;&gt;AppModule -->
<g id="edge2" class="edge">
<title>AppComponent&#45;&gt;AppModule</title>
<path fill="none" stroke="black" d="M1270,-84.83C1270,-101.86 1270,-124.8 1270,-124.8 1270,-124.8 1030.69,-124.8 1030.69,-124.8"/>
<polygon fill="black" stroke="black" points="1030.69,-121.3 1020.69,-124.8 1030.69,-128.3 1030.69,-121.3"/>
</g>
<!-- CubeComponent -->
<g id="node3" class="node">
<title>CubeComponent</title>
<polygon fill="#ffffb3" stroke="black" points="1199.38,-84.8 1088.62,-84.8 1088.62,-48.8 1199.38,-48.8 1199.38,-84.8"/>
<text text-anchor="middle" x="1144" y="-62.6" font-family="Times,serif" font-size="14.00">CubeComponent</text>
</g>
<!-- CubeComponent&#45;&gt;AppModule -->
<g id="edge3" class="edge">
<title>CubeComponent&#45;&gt;AppModule</title>
<path fill="none" stroke="black" d="M1097.01,-85.04C1097.01,-100.37 1097.01,-119.8 1097.01,-119.8 1097.01,-119.8 1030.94,-119.8 1030.94,-119.8"/>
<polygon fill="black" stroke="black" points="1030.94,-116.3 1020.94,-119.8 1030.94,-123.3 1030.94,-116.3"/>
</g>
<!-- DeviceOperationsComponent -->
<g id="node4" class="node">
<title>DeviceOperationsComponent</title>
<polygon fill="#ffffb3" stroke="black" points="1070.4,-84.8 887.6,-84.8 887.6,-48.8 1070.4,-48.8 1070.4,-84.8"/>
<text text-anchor="middle" x="979" y="-62.6" font-family="Times,serif" font-size="14.00">DeviceOperationsComponent</text>
</g>
<!-- DeviceOperationsComponent&#45;&gt;AppModule -->
<g id="edge4" class="edge">
<title>DeviceOperationsComponent&#45;&gt;AppModule</title>
<path fill="none" stroke="black" d="M979,-84.91C979,-84.91 979,-103.79 979,-103.79"/>
<polygon fill="black" stroke="black" points="975.5,-103.79 979,-113.79 982.5,-103.79 975.5,-103.79"/>
</g>
<!-- DevicesComponent -->
<g id="node5" class="node">
<title>DevicesComponent</title>
<polygon fill="#ffffb3" stroke="black" points="870.42,-84.8 743.58,-84.8 743.58,-48.8 870.42,-48.8 870.42,-84.8"/>
<text text-anchor="middle" x="807" y="-62.6" font-family="Times,serif" font-size="14.00">DevicesComponent</text>
</g>
<!-- DevicesComponent&#45;&gt;AppModule -->
<g id="edge5" class="edge">
<title>DevicesComponent&#45;&gt;AppModule</title>
<path fill="none" stroke="black" d="M856.62,-85.04C856.62,-100.37 856.62,-119.8 856.62,-119.8 856.62,-119.8 927.23,-119.8 927.23,-119.8"/>
<polygon fill="black" stroke="black" points="927.23,-123.3 937.23,-119.8 927.23,-116.3 927.23,-123.3"/>
</g>
<!-- DevicesListComponent -->
<g id="node6" class="node">
<title>DevicesListComponent</title>
<polygon fill="#ffffb3" stroke="black" points="726.2,-84.8 577.8,-84.8 577.8,-48.8 726.2,-48.8 726.2,-84.8"/>
<text text-anchor="middle" x="652" y="-62.6" font-family="Times,serif" font-size="14.00">DevicesListComponent</text>
</g>
<!-- DevicesListComponent&#45;&gt;AppModule -->
<g id="edge6" class="edge">
<title>DevicesListComponent&#45;&gt;AppModule</title>
<path fill="none" stroke="black" d="M652,-84.83C652,-101.86 652,-124.8 652,-124.8 652,-124.8 927.25,-124.8 927.25,-124.8"/>
<polygon fill="black" stroke="black" points="927.25,-128.3 937.25,-124.8 927.25,-121.3 927.25,-128.3"/>
</g>
<!-- EditDeviceComponent -->
<g id="node7" class="node">
<title>EditDeviceComponent</title>
<polygon fill="#ffffb3" stroke="black" points="560.3,-84.8 415.7,-84.8 415.7,-48.8 560.3,-48.8 560.3,-84.8"/>
<text text-anchor="middle" x="488" y="-62.6" font-family="Times,serif" font-size="14.00">EditDeviceComponent</text>
</g>
<!-- EditDeviceComponent&#45;&gt;AppModule -->
<g id="edge7" class="edge">
<title>EditDeviceComponent&#45;&gt;AppModule</title>
<path fill="none" stroke="black" d="M488,-85.02C488,-103.63 488,-129.8 488,-129.8 488,-129.8 927.14,-129.8 927.14,-129.8"/>
<polygon fill="black" stroke="black" points="927.14,-133.3 937.14,-129.8 927.14,-126.3 927.14,-133.3"/>
</g>
<!-- HomeComponent -->
<g id="node8" class="node">
<title>HomeComponent</title>
<polygon fill="#ffffb3" stroke="black" points="397.55,-84.8 282.45,-84.8 282.45,-48.8 397.55,-48.8 397.55,-84.8"/>
<text text-anchor="middle" x="340" y="-62.6" font-family="Times,serif" font-size="14.00">HomeComponent</text>
</g>
<!-- HomeComponent&#45;&gt;AppModule -->
<g id="edge8" class="edge">
<title>HomeComponent&#45;&gt;AppModule</title>
<path fill="none" stroke="black" d="M340,-85.02C340,-105.17 340,-134.8 340,-134.8 340,-134.8 927.07,-134.8 927.07,-134.8"/>
<polygon fill="black" stroke="black" points="927.07,-138.3 937.07,-134.8 927.07,-131.3 927.07,-138.3"/>
</g>
<!-- LogComponent -->
<g id="node9" class="node">
<title>LogComponent</title>
<polygon fill="#ffffb3" stroke="black" points="263.88,-84.8 160.12,-84.8 160.12,-48.8 263.88,-48.8 263.88,-84.8"/>
<text text-anchor="middle" x="212" y="-62.6" font-family="Times,serif" font-size="14.00">LogComponent</text>
</g>
<!-- LogComponent&#45;&gt;AppModule -->
<g id="edge9" class="edge">
<title>LogComponent&#45;&gt;AppModule</title>
<path fill="none" stroke="black" d="M212,-84.84C212,-106.46 212,-139.8 212,-139.8 212,-139.8 927.22,-139.8 927.22,-139.8"/>
<polygon fill="black" stroke="black" points="927.22,-143.3 937.22,-139.8 927.22,-136.3 927.22,-143.3"/>
</g>
<!-- ModelComponent -->
<g id="node10" class="node">
<title>ModelComponent</title>
<polygon fill="#ffffb3" stroke="black" points="141.88,-84.8 24.12,-84.8 24.12,-48.8 141.88,-48.8 141.88,-84.8"/>
<text text-anchor="middle" x="83" y="-62.6" font-family="Times,serif" font-size="14.00">ModelComponent</text>
</g>
<!-- ModelComponent&#45;&gt;AppModule -->
<g id="edge10" class="edge">
<title>ModelComponent&#45;&gt;AppModule</title>
<path fill="none" stroke="black" d="M83,-84.89C83,-107.93 83,-144.8 83,-144.8 83,-144.8 927.28,-144.8 927.28,-144.8"/>
<polygon fill="black" stroke="black" points="927.28,-148.3 937.28,-144.8 927.28,-141.3 927.28,-148.3"/>
</g>
<!-- DevicesComponent  -->
<g id="node13" class="node">
<title>DevicesComponent </title>
<polygon fill="#fb8072" stroke="black" points="972.92,-214.8 843.08,-214.8 843.08,-178.8 972.92,-178.8 972.92,-214.8"/>
<text text-anchor="middle" x="908" y="-192.6" font-family="Times,serif" font-size="14.00">DevicesComponent </text>
</g>
<!-- AppModule&#45;&gt;DevicesComponent  -->
<g id="edge12" class="edge">
<title>AppModule&#45;&gt;DevicesComponent </title>
<path fill="none" stroke="black" stroke-dasharray="5,2" d="M955.06,-149.91C955.06,-149.91 955.06,-168.79 955.06,-168.79"/>
<polygon fill="black" stroke="black" points="951.56,-168.79 955.06,-178.79 958.56,-168.79 951.56,-168.79"/>
</g>
<!-- AppComponent  -->
<g id="node14" class="node">
<title>AppComponent </title>
<polygon fill="#80b1d3" stroke="black" points="1105.44,-214.8 996.56,-214.8 996.56,-178.8 1105.44,-178.8 1105.44,-214.8"/>
<text text-anchor="middle" x="1051" y="-192.6" font-family="Times,serif" font-size="14.00">AppComponent </text>
</g>
<!-- AppModule&#45;&gt;AppComponent  -->
<g id="edge13" class="edge">
<title>AppModule&#45;&gt;AppComponent </title>
<path fill="none" stroke="black" stroke-dasharray="1,5" d="M1008.68,-149.91C1008.68,-149.91 1008.68,-168.79 1008.68,-168.79"/>
<polygon fill="black" stroke="black" points="1005.18,-168.79 1008.68,-178.79 1012.18,-168.79 1005.18,-168.79"/>
</g>
<!-- AppRoutingModule -->
<g id="node12" class="node">
<title>AppRoutingModule</title>
<polygon fill="#8dd3c7" stroke="black" points="1638.28,-84.8 1635.28,-88.8 1614.28,-88.8 1611.28,-84.8 1509.72,-84.8 1509.72,-48.8 1638.28,-48.8 1638.28,-84.8"/>
<text text-anchor="middle" x="1574" y="-62.6" font-family="Times,serif" font-size="14.00">AppRoutingModule</text>
</g>
<!-- AppRoutingModule&#45;&gt;AppModule -->
<g id="edge11" class="edge">
<title>AppRoutingModule&#45;&gt;AppModule</title>
<path fill="none" stroke="black" d="M1574,-85.02C1574,-105.17 1574,-134.8 1574,-134.8 1574,-134.8 1030.84,-134.8 1030.84,-134.8"/>
<polygon fill="black" stroke="black" points="1030.84,-131.3 1020.84,-134.8 1030.84,-138.3 1030.84,-131.3"/>
</g>
<!-- DevicesService -->
<g id="node15" class="node">
<title>DevicesService</title>
<ellipse fill="#fdb462" stroke="black" cx="1863" cy="-66.8" rx="71.19" ry="18"/>
<text text-anchor="middle" x="1863" y="-62.6" font-family="Times,serif" font-size="14.00">DevicesService</text>
</g>
<!-- DevicesService&#45;&gt;AppModule -->
<g id="edge14" class="edge">
<title>DevicesService&#45;&gt;AppModule</title>
<path fill="none" stroke="black" d="M1863,-84.89C1863,-107.93 1863,-144.8 1863,-144.8 1863,-144.8 1030.75,-144.8 1030.75,-144.8"/>
<polygon fill="black" stroke="black" points="1030.75,-141.3 1020.75,-144.8 1030.75,-148.3 1030.75,-141.3"/>
</g>
<!-- LogService -->
<g id="node16" class="node">
<title>LogService</title>
<ellipse fill="#fdb462" stroke="black" cx="1718" cy="-66.8" rx="55.6" ry="18"/>
<text text-anchor="middle" x="1718" y="-62.6" font-family="Times,serif" font-size="14.00">LogService</text>
</g>
<!-- LogService&#45;&gt;AppModule -->
<g id="edge15" class="edge">
<title>LogService&#45;&gt;AppModule</title>
<path fill="none" stroke="black" d="M1718,-84.84C1718,-106.46 1718,-139.8 1718,-139.8 1718,-139.8 1030.85,-139.8 1030.85,-139.8"/>
<polygon fill="black" stroke="black" points="1030.85,-136.3 1020.85,-139.8 1030.85,-143.3 1030.85,-136.3"/>
</g>
</g>
</svg>
