<?xml version="1.0" encoding="UTF-8" standalone="no"?>
<!DOCTYPE svg PUBLIC "-//W3C//DTD SVG 1.1//EN"
 "http://www.w3.org/Graphics/SVG/1.1/DTD/svg11.dtd">
<!-- Generated by graphviz version 2.47.0 (20210316.0004)
 -->
<!-- Title: dependencies Pages: 1 -->
<svg width="5330pt" height="284pt"
 viewBox="0.00 0.00 5330.00 284.00" xmlns="http://www.w3.org/2000/svg" xmlns:xlink="http://www.w3.org/1999/xlink">
<g id="graph0" class="graph" transform="scale(1 1) rotate(0) translate(4 280)">
<title>dependencies</title>
<polygon fill="white" stroke="transparent" points="-4,4 -4,-280 5326,-280 5326,4 -4,4"/>
<text text-anchor="start" x="2640.01" y="-42.4" font-family="Times-12" font-weight="bold" font-size="14.00">Legend</text>
<polygon fill="#ffffb3" stroke="transparent" points="2427,-10 2427,-30 2447,-30 2447,-10 2427,-10"/>
<text text-anchor="start" x="2450.63" y="-15.4" font-family="Times-12" font-size="14.00"> &#160;Declarations</text>
<polygon fill="#8dd3c7" stroke="transparent" points="2540,-10 2540,-30 2560,-30 2560,-10 2540,-10"/>
<text text-anchor="start" x="2563.73" y="-15.4" font-family="Times-12" font-size="14.00"> &#160;Module</text>
<polygon fill="#80b1d3" stroke="transparent" points="2626,-10 2626,-30 2646,-30 2646,-10 2626,-10"/>
<text text-anchor="start" x="2649.78" y="-15.4" font-family="Times-12" font-size="14.00"> &#160;Bootstrap</text>
<polygon fill="#fdb462" stroke="transparent" points="2723,-10 2723,-30 2743,-30 2743,-10 2723,-10"/>
<text text-anchor="start" x="2746.67" y="-15.4" font-family="Times-12" font-size="14.00"> &#160;Providers</text>
<polygon fill="#fb8072" stroke="transparent" points="2819,-10 2819,-30 2839,-30 2839,-10 2819,-10"/>
<text text-anchor="start" x="2842.73" y="-15.4" font-family="Times-12" font-size="14.00"> &#160;Exports</text>
<g id="clust1" class="cluster">
<title>cluster_AppModule</title>
<polygon fill="none" stroke="black" stroke-dasharray="1,5" points="8,-70 8,-268 5314,-268 5314,-70 8,-70"/>
</g>
<g id="clust29" class="cluster">
<title>cluster_AppModule_providers</title>
<polygon fill="none" stroke="black" points="4110,-78 4110,-130 5306,-130 5306,-78 4110,-78"/>
</g>
<g id="clust2" class="cluster">
<title>cluster_AppModule_declarations</title>
<polygon fill="none" stroke="black" points="168,-78 168,-130 4102,-130 4102,-78 168,-78"/>
</g>
<g id="clust28" class="cluster">
<title>cluster_AppModule_bootstrap</title>
<polygon fill="none" stroke="black" points="2383,-208 2383,-260 2507,-260 2507,-208 2383,-208"/>
</g>
<g id="clust26" class="cluster">
<title>cluster_AppModule_imports</title>
<polygon fill="none" stroke="black" points="16,-78 16,-130 160,-130 160,-78 16,-78"/>
</g>
<!-- AppComponent -->
<g id="node1" class="node">
<title>AppComponent</title>
<polygon fill="#ffffb3" stroke="black" points="4093.94,-122 3988.06,-122 3988.06,-86 4093.94,-86 4093.94,-122"/>
<text text-anchor="middle" x="4041" y="-99.8" font-family="Times,serif" font-size="14.00">AppComponent</text>
</g>
<!-- AppModule -->
<g id="node24" class="node">
<title>AppModule</title>
<polygon fill="#8dd3c7" stroke="black" points="2486.66,-187 2483.66,-191 2462.66,-191 2459.66,-187 2403.34,-187 2403.34,-151 2486.66,-151 2486.66,-187"/>
<text text-anchor="middle" x="2445" y="-164.8" font-family="Times,serif" font-size="14.00">AppModule</text>
</g>
<!-- AppComponent&#45;&gt;AppModule -->
<g id="edge1" class="edge">
<title>AppComponent&#45;&gt;AppModule</title>
<path fill="none" stroke="black" d="M4041,-122.11C4041,-141.34 4041,-169 4041,-169 4041,-169 2496.87,-169 2496.87,-169"/>
<polygon fill="black" stroke="black" points="2496.87,-165.5 2486.87,-169 2496.87,-172.5 2496.87,-165.5"/>
</g>
<!-- AsyncObservablePipeComponent -->
<g id="node2" class="node">
<title>AsyncObservablePipeComponent</title>
<polygon fill="#ffffb3" stroke="black" points="3969.73,-122 3764.27,-122 3764.27,-86 3969.73,-86 3969.73,-122"/>
<text text-anchor="middle" x="3867" y="-99.8" font-family="Times,serif" font-size="14.00">AsyncObservablePipeComponent</text>
</g>
<!-- AsyncObservablePipeComponent&#45;&gt;AppModule -->
<g id="edge2" class="edge">
<title>AsyncObservablePipeComponent&#45;&gt;AppModule</title>
<path fill="none" stroke="black" d="M3867,-122.22C3867,-140.83 3867,-167 3867,-167 3867,-167 2496.79,-167 2496.79,-167"/>
<polygon fill="black" stroke="black" points="2496.79,-163.5 2486.79,-167 2496.79,-170.5 2496.79,-163.5"/>
</g>
<!-- AttributeAddComponent -->
<g id="node3" class="node">
<title>AttributeAddComponent</title>
<polygon fill="#ffffb3" stroke="black" points="3745.98,-122 3590.02,-122 3590.02,-86 3745.98,-86 3745.98,-122"/>
<text text-anchor="middle" x="3668" y="-99.8" font-family="Times,serif" font-size="14.00">AttributeAddComponent</text>
</g>
<!-- AttributeAddComponent&#45;&gt;AppModule -->
<g id="edge3" class="edge">
<title>AttributeAddComponent&#45;&gt;AppModule</title>
<path fill="none" stroke="black" d="M3668,-122.3C3668,-140.27 3668,-165 3668,-165 3668,-165 2496.74,-165 2496.74,-165"/>
<polygon fill="black" stroke="black" points="2496.74,-161.5 2486.74,-165 2496.74,-168.5 2496.74,-161.5"/>
</g>
<!-- AttributeDictionaryAddComponent -->
<g id="node4" class="node">
<title>AttributeDictionaryAddComponent</title>
<polygon fill="#ffffb3" stroke="black" points="3571.85,-122 3356.15,-122 3356.15,-86 3571.85,-86 3571.85,-122"/>
<text text-anchor="middle" x="3464" y="-99.8" font-family="Times,serif" font-size="14.00">AttributeDictionaryAddComponent</text>
</g>
<!-- AttributeDictionaryAddComponent&#45;&gt;AppModule -->
<g id="edge4" class="edge">
<title>AttributeDictionaryAddComponent&#45;&gt;AppModule</title>
<path fill="none" stroke="black" d="M3464,-122.02C3464,-139.37 3464,-163 3464,-163 3464,-163 2496.85,-163 2496.85,-163"/>
<polygon fill="black" stroke="black" points="2496.85,-159.5 2486.85,-163 2496.85,-166.5 2496.85,-159.5"/>
</g>
<!-- AttributeDictionaryEditComponent -->
<g id="node5" class="node">
<title>AttributeDictionaryEditComponent</title>
<polygon fill="#ffffb3" stroke="black" points="3338.58,-122 3123.42,-122 3123.42,-86 3338.58,-86 3338.58,-122"/>
<text text-anchor="middle" x="3231" y="-99.8" font-family="Times,serif" font-size="14.00">AttributeDictionaryEditComponent</text>
</g>
<!-- AttributeDictionaryEditComponent&#45;&gt;AppModule -->
<g id="edge5" class="edge">
<title>AttributeDictionaryEditComponent&#45;&gt;AppModule</title>
<path fill="none" stroke="black" d="M3231,-122.03C3231,-138.4 3231,-160 3231,-160 3231,-160 2496.7,-160 2496.7,-160"/>
<polygon fill="black" stroke="black" points="2496.7,-156.5 2486.7,-160 2496.7,-163.5 2496.7,-156.5"/>
</g>
<!-- AttributeDictionaryListComponent -->
<g id="node6" class="node">
<title>AttributeDictionaryListComponent</title>
<polygon fill="#ffffb3" stroke="black" points="3105.52,-122 2892.48,-122 2892.48,-86 3105.52,-86 3105.52,-122"/>
<text text-anchor="middle" x="2999" y="-99.8" font-family="Times,serif" font-size="14.00">AttributeDictionaryListComponent</text>
</g>
<!-- AttributeDictionaryListComponent&#45;&gt;AppModule -->
<g id="edge6" class="edge">
<title>AttributeDictionaryListComponent&#45;&gt;AppModule</title>
<path fill="none" stroke="black" d="M2999,-122.28C2999,-137.95 2999,-158 2999,-158 2999,-158 2497.09,-158 2497.09,-158"/>
<polygon fill="black" stroke="black" points="2497.09,-154.5 2487.09,-158 2497.09,-161.5 2497.09,-154.5"/>
</g>
<!-- AttributeEditComponent -->
<g id="node7" class="node">
<title>AttributeEditComponent</title>
<polygon fill="#ffffb3" stroke="black" points="2874.71,-122 2719.29,-122 2719.29,-86 2874.71,-86 2874.71,-122"/>
<text text-anchor="middle" x="2797" y="-99.8" font-family="Times,serif" font-size="14.00">AttributeEditComponent</text>
</g>
<!-- AttributeEditComponent&#45;&gt;AppModule -->
<g id="edge7" class="edge">
<title>AttributeEditComponent&#45;&gt;AppModule</title>
<path fill="none" stroke="black" d="M2797,-122.19C2797,-137.18 2797,-156 2797,-156 2797,-156 2496.76,-156 2496.76,-156"/>
<polygon fill="black" stroke="black" points="2496.76,-152.5 2486.76,-156 2496.76,-159.5 2496.76,-152.5"/>
</g>
<!-- AttributeListComponent -->
<g id="node8" class="node">
<title>AttributeListComponent</title>
<polygon fill="#ffffb3" stroke="black" points="2701.66,-122 2548.34,-122 2548.34,-86 2701.66,-86 2701.66,-122"/>
<text text-anchor="middle" x="2625" y="-99.8" font-family="Times,serif" font-size="14.00">AttributeListComponent</text>
</g>
<!-- AttributeListComponent&#45;&gt;AppModule -->
<g id="edge8" class="edge">
<title>AttributeListComponent&#45;&gt;AppModule</title>
<path fill="none" stroke="black" d="M2625,-122.05C2625,-136.37 2625,-154 2625,-154 2625,-154 2496.75,-154 2496.75,-154"/>
<polygon fill="black" stroke="black" points="2496.75,-150.5 2486.75,-154 2496.75,-157.5 2496.75,-150.5"/>
</g>
<!-- ConnectionAddComponent -->
<g id="node9" class="node">
<title>ConnectionAddComponent</title>
<polygon fill="#ffffb3" stroke="black" points="2529.99,-122 2360.01,-122 2360.01,-86 2529.99,-86 2529.99,-122"/>
<text text-anchor="middle" x="2445" y="-99.8" font-family="Times,serif" font-size="14.00">ConnectionAddComponent</text>
</g>
<!-- ConnectionAddComponent&#45;&gt;AppModule -->
<g id="edge9" class="edge">
<title>ConnectionAddComponent&#45;&gt;AppModule</title>
<path fill="none" stroke="black" d="M2445,-122.11C2445,-122.11 2445,-140.99 2445,-140.99"/>
<polygon fill="black" stroke="black" points="2441.5,-140.99 2445,-150.99 2448.5,-140.99 2441.5,-140.99"/>
</g>
<!-- ConnectionEditComponent -->
<g id="node10" class="node">
<title>ConnectionEditComponent</title>
<polygon fill="#ffffb3" stroke="black" points="2341.71,-122 2172.29,-122 2172.29,-86 2341.71,-86 2341.71,-122"/>
<text text-anchor="middle" x="2257" y="-99.8" font-family="Times,serif" font-size="14.00">ConnectionEditComponent</text>
</g>
<!-- ConnectionEditComponent&#45;&gt;AppModule -->
<g id="edge10" class="edge">
<title>ConnectionEditComponent&#45;&gt;AppModule</title>
<path fill="none" stroke="black" d="M2257,-122.05C2257,-136.37 2257,-154 2257,-154 2257,-154 2393.28,-154 2393.28,-154"/>
<polygon fill="black" stroke="black" points="2393.28,-157.5 2403.28,-154 2393.28,-150.5 2393.28,-157.5"/>
</g>
<!-- ConnectionListComponent -->
<g id="node11" class="node">
<title>ConnectionListComponent</title>
<polygon fill="#ffffb3" stroke="black" points="2154.66,-122 1987.34,-122 1987.34,-86 2154.66,-86 2154.66,-122"/>
<text text-anchor="middle" x="2071" y="-99.8" font-family="Times,serif" font-size="14.00">ConnectionListComponent</text>
</g>
<!-- ConnectionListComponent&#45;&gt;AppModule -->
<g id="edge11" class="edge">
<title>ConnectionListComponent&#45;&gt;AppModule</title>
<path fill="none" stroke="black" d="M2071,-122.19C2071,-137.18 2071,-156 2071,-156 2071,-156 2393.19,-156 2393.19,-156"/>
<polygon fill="black" stroke="black" points="2393.19,-159.5 2403.19,-156 2393.19,-152.5 2393.19,-159.5"/>
</g>
<!-- CubeComponent -->
<g id="node12" class="node">
<title>CubeComponent</title>
<polygon fill="#ffffb3" stroke="black" points="1969.38,-122 1858.62,-122 1858.62,-86 1969.38,-86 1969.38,-122"/>
<text text-anchor="middle" x="1914" y="-99.8" font-family="Times,serif" font-size="14.00">CubeComponent</text>
</g>
<!-- CubeComponent&#45;&gt;AppModule -->
<g id="edge12" class="edge">
<title>CubeComponent&#45;&gt;AppModule</title>
<path fill="none" stroke="black" d="M1914,-122.28C1914,-137.95 1914,-158 1914,-158 1914,-158 2393.33,-158 2393.33,-158"/>
<polygon fill="black" stroke="black" points="2393.33,-161.5 2403.33,-158 2393.33,-154.5 2393.33,-161.5"/>
</g>
<!-- DeviceAddComponent -->
<g id="node13" class="node">
<title>DeviceAddComponent</title>
<polygon fill="#ffffb3" stroke="black" points="1840.58,-122 1695.42,-122 1695.42,-86 1840.58,-86 1840.58,-122"/>
<text text-anchor="middle" x="1768" y="-99.8" font-family="Times,serif" font-size="14.00">DeviceAddComponent</text>
</g>
<!-- DeviceAddComponent&#45;&gt;AppModule -->
<g id="edge13" class="edge">
<title>DeviceAddComponent&#45;&gt;AppModule</title>
<path fill="none" stroke="black" d="M1768,-122.03C1768,-138.4 1768,-160 1768,-160 1768,-160 2393.16,-160 2393.16,-160"/>
<polygon fill="black" stroke="black" points="2393.16,-163.5 2403.16,-160 2393.16,-156.5 2393.16,-163.5"/>
</g>
<!-- DeviceEditComponent -->
<g id="node14" class="node">
<title>DeviceEditComponent</title>
<polygon fill="#ffffb3" stroke="black" points="1677.31,-122 1532.69,-122 1532.69,-86 1677.31,-86 1677.31,-122"/>
<text text-anchor="middle" x="1605" y="-99.8" font-family="Times,serif" font-size="14.00">DeviceEditComponent</text>
</g>
<!-- DeviceEditComponent&#45;&gt;AppModule -->
<g id="edge14" class="edge">
<title>DeviceEditComponent&#45;&gt;AppModule</title>
<path fill="none" stroke="black" d="M1605,-122.02C1605,-139.37 1605,-163 1605,-163 1605,-163 2393.06,-163 2393.06,-163"/>
<polygon fill="black" stroke="black" points="2393.06,-166.5 2403.06,-163 2393.06,-159.5 2393.06,-166.5"/>
</g>
<!-- DeviceListComponent -->
<g id="node15" class="node">
<title>DeviceListComponent</title>
<polygon fill="#ffffb3" stroke="black" points="1514.25,-122 1371.75,-122 1371.75,-86 1514.25,-86 1514.25,-122"/>
<text text-anchor="middle" x="1443" y="-99.8" font-family="Times,serif" font-size="14.00">DeviceListComponent</text>
</g>
<!-- DeviceListComponent&#45;&gt;AppModule -->
<g id="edge15" class="edge">
<title>DeviceListComponent&#45;&gt;AppModule</title>
<path fill="none" stroke="black" d="M1443,-122.3C1443,-140.27 1443,-165 1443,-165 1443,-165 2393.22,-165 2393.22,-165"/>
<polygon fill="black" stroke="black" points="2393.22,-168.5 2403.22,-165 2393.22,-161.5 2393.22,-168.5"/>
</g>
<!-- FloorAddComponent -->
<g id="node16" class="node">
<title>FloorAddComponent</title>
<polygon fill="#ffffb3" stroke="black" points="1353.77,-122 1218.23,-122 1218.23,-86 1353.77,-86 1353.77,-122"/>
<text text-anchor="middle" x="1286" y="-99.8" font-family="Times,serif" font-size="14.00">FloorAddComponent</text>
</g>
<!-- FloorAddComponent&#45;&gt;AppModule -->
<g id="edge16" class="edge">
<title>FloorAddComponent&#45;&gt;AppModule</title>
<path fill="none" stroke="black" d="M1286,-122.22C1286,-140.83 1286,-167 1286,-167 1286,-167 2393.07,-167 2393.07,-167"/>
<polygon fill="black" stroke="black" points="2393.07,-170.5 2403.07,-167 2393.07,-163.5 2393.07,-170.5"/>
</g>
<!-- FloorEditComponent -->
<g id="node17" class="node">
<title>FloorEditComponent</title>
<polygon fill="#ffffb3" stroke="black" points="1200.5,-122 1065.5,-122 1065.5,-86 1200.5,-86 1200.5,-122"/>
<text text-anchor="middle" x="1133" y="-99.8" font-family="Times,serif" font-size="14.00">FloorEditComponent</text>
</g>
<!-- FloorEditComponent&#45;&gt;AppModule -->
<g id="edge17" class="edge">
<title>FloorEditComponent&#45;&gt;AppModule</title>
<path fill="none" stroke="black" d="M1133,-122.11C1133,-141.34 1133,-169 1133,-169 1133,-169 2393.2,-169 2393.2,-169"/>
<polygon fill="black" stroke="black" points="2393.2,-172.5 2403.2,-169 2393.2,-165.5 2393.2,-172.5"/>
</g>
<!-- FloorListComponent -->
<g id="node18" class="node">
<title>FloorListComponent</title>
<polygon fill="#ffffb3" stroke="black" points="1047.95,-122 914.05,-122 914.05,-86 1047.95,-86 1047.95,-122"/>
<text text-anchor="middle" x="981" y="-99.8" font-family="Times,serif" font-size="14.00">FloorListComponent</text>
</g>
<!-- FloorListComponent&#45;&gt;AppModule -->
<g id="edge18" class="edge">
<title>FloorListComponent&#45;&gt;AppModule</title>
<path fill="none" stroke="black" d="M981,-122.22C981,-142.37 981,-172 981,-172 981,-172 2393.15,-172 2393.15,-172"/>
<polygon fill="black" stroke="black" points="2393.15,-175.5 2403.15,-172 2393.15,-168.5 2393.15,-175.5"/>
</g>
<!-- HomeComponent -->
<g id="node19" class="node">
<title>HomeComponent</title>
<polygon fill="#ffffb3" stroke="black" points="896.55,-122 781.45,-122 781.45,-86 896.55,-86 896.55,-122"/>
<text text-anchor="middle" x="839" y="-99.8" font-family="Times,serif" font-size="14.00">HomeComponent</text>
</g>
<!-- HomeComponent&#45;&gt;AppModule -->
<g id="edge19" class="edge">
<title>HomeComponent&#45;&gt;AppModule</title>
<path fill="none" stroke="black" d="M839,-122.03C839,-142.77 839,-174 839,-174 839,-174 2393.28,-174 2393.28,-174"/>
<polygon fill="black" stroke="black" points="2393.28,-177.5 2403.28,-174 2393.28,-170.5 2393.28,-177.5"/>
</g>
<!-- LogComponent -->
<g id="node20" class="node">
<title>LogComponent</title>
<polygon fill="#ffffb3" stroke="black" points="762.89,-122 659.11,-122 659.11,-86 762.89,-86 762.89,-122"/>
<text text-anchor="middle" x="711" y="-99.8" font-family="Times,serif" font-size="14.00">LogComponent</text>
</g>
<!-- LogComponent&#45;&gt;AppModule -->
<g id="edge20" class="edge">
<title>LogComponent&#45;&gt;AppModule</title>
<path fill="none" stroke="black" d="M711,-122.17C711,-143.5 711,-176 711,-176 711,-176 2393,-176 2393,-176"/>
<polygon fill="black" stroke="black" points="2393,-179.5 2403,-176 2393,-172.5 2393,-179.5"/>
</g>
<!-- ModelAddComponent -->
<g id="node21" class="node">
<title>ModelAddComponent</title>
<polygon fill="#ffffb3" stroke="black" points="640.99,-122 499.01,-122 499.01,-86 640.99,-86 640.99,-122"/>
<text text-anchor="middle" x="570" y="-99.8" font-family="Times,serif" font-size="14.00">ModelAddComponent</text>
</g>
<!-- ModelAddComponent&#45;&gt;AppModule -->
<g id="edge21" class="edge">
<title>ModelAddComponent&#45;&gt;AppModule</title>
<path fill="none" stroke="black" d="M570,-122.29C570,-144.21 570,-178 570,-178 570,-178 2393.21,-178 2393.21,-178"/>
<polygon fill="black" stroke="black" points="2393.21,-181.5 2403.21,-178 2393.21,-174.5 2393.21,-181.5"/>
</g>
<!-- ModelEditComponent -->
<g id="node22" class="node">
<title>ModelEditComponent</title>
<polygon fill="#ffffb3" stroke="black" points="480.72,-122 339.28,-122 339.28,-86 480.72,-86 480.72,-122"/>
<text text-anchor="middle" x="410" y="-99.8" font-family="Times,serif" font-size="14.00">ModelEditComponent</text>
</g>
<!-- ModelEditComponent&#45;&gt;AppModule -->
<g id="edge22" class="edge">
<title>ModelEditComponent&#45;&gt;AppModule</title>
<path fill="none" stroke="black" d="M410,-122.25C410,-145.02 410,-181 410,-181 410,-181 2392.96,-181 2392.96,-181"/>
<polygon fill="black" stroke="black" points="2392.96,-184.5 2402.96,-181 2392.96,-177.5 2392.96,-184.5"/>
</g>
<!-- ModelsListComponent -->
<g id="node23" class="node">
<title>ModelsListComponent</title>
<polygon fill="#ffffb3" stroke="black" points="321.61,-122 176.39,-122 176.39,-86 321.61,-86 321.61,-122"/>
<text text-anchor="middle" x="249" y="-99.8" font-family="Times,serif" font-size="14.00">ModelsListComponent</text>
</g>
<!-- ModelsListComponent&#45;&gt;AppModule -->
<g id="edge23" class="edge">
<title>ModelsListComponent&#45;&gt;AppModule</title>
<path fill="none" stroke="black" d="M249,-122.32C249,-145.66 249,-183 249,-183 249,-183 2393.09,-183 2393.09,-183"/>
<polygon fill="black" stroke="black" points="2393.09,-186.5 2403.09,-183 2393.09,-179.5 2393.09,-186.5"/>
</g>
<!-- AppComponent  -->
<g id="node26" class="node">
<title>AppComponent </title>
<polygon fill="#80b1d3" stroke="black" points="2499.44,-252 2390.56,-252 2390.56,-216 2499.44,-216 2499.44,-252"/>
<text text-anchor="middle" x="2445" y="-229.8" font-family="Times,serif" font-size="14.00">AppComponent </text>
</g>
<!-- AppModule&#45;&gt;AppComponent  -->
<g id="edge25" class="edge">
<title>AppModule&#45;&gt;AppComponent </title>
<path fill="none" stroke="black" stroke-dasharray="1,5" d="M2445,-187.11C2445,-187.11 2445,-205.99 2445,-205.99"/>
<polygon fill="black" stroke="black" points="2441.5,-205.99 2445,-215.99 2448.5,-205.99 2441.5,-205.99"/>
</g>
<!-- AppRoutingModule -->
<g id="node25" class="node">
<title>AppRoutingModule</title>
<polygon fill="#8dd3c7" stroke="black" points="152.27,-122 149.27,-126 128.27,-126 125.27,-122 23.73,-122 23.73,-86 152.27,-86 152.27,-122"/>
<text text-anchor="middle" x="88" y="-99.8" font-family="Times,serif" font-size="14.00">AppRoutingModule</text>
</g>
<!-- AppRoutingModule&#45;&gt;AppModule -->
<g id="edge24" class="edge">
<title>AppRoutingModule&#45;&gt;AppModule</title>
<path fill="none" stroke="black" d="M88,-122.38C88,-146.28 88,-185 88,-185 88,-185 2393.34,-185 2393.34,-185"/>
<polygon fill="black" stroke="black" points="2393.34,-188.5 2403.34,-185 2393.34,-181.5 2393.34,-188.5"/>
</g>
<!-- AttributeDictionaryService -->
<g id="node27" class="node">
<title>AttributeDictionaryService</title>
<ellipse fill="#fdb462" stroke="black" cx="5182" cy="-104" rx="116.3" ry="18"/>
<text text-anchor="middle" x="5182" y="-99.8" font-family="Times,serif" font-size="14.00">AttributeDictionaryService</text>
</g>
<!-- AttributeDictionaryService&#45;&gt;AppModule -->
<g id="edge26" class="edge">
<title>AttributeDictionaryService&#45;&gt;AppModule</title>
<path fill="none" stroke="black" d="M5182,-122.38C5182,-146.28 5182,-185 5182,-185 5182,-185 2496.9,-185 2496.9,-185"/>
<polygon fill="black" stroke="black" points="2496.9,-181.5 2486.9,-185 2496.9,-188.5 2496.9,-181.5"/>
</g>
<!-- AttributeService -->
<g id="node28" class="node">
<title>AttributeService</title>
<ellipse fill="#fdb462" stroke="black" cx="4973" cy="-104" rx="74.71" ry="18"/>
<text text-anchor="middle" x="4973" y="-99.8" font-family="Times,serif" font-size="14.00">AttributeService</text>
</g>
<!-- AttributeService&#45;&gt;AppModule -->
<g id="edge27" class="edge">
<title>AttributeService&#45;&gt;AppModule</title>
<path fill="none" stroke="black" d="M4973,-122.32C4973,-145.66 4973,-183 4973,-183 4973,-183 2496.77,-183 2496.77,-183"/>
<polygon fill="black" stroke="black" points="2496.77,-179.5 2486.77,-183 2496.77,-186.5 2496.77,-179.5"/>
</g>
<!-- CustomErrorHandler -->
<g id="node29" class="node">
<title>CustomErrorHandler</title>
<ellipse fill="#fdb462" stroke="black" cx="4788" cy="-104" rx="92.62" ry="18"/>
<text text-anchor="middle" x="4788" y="-99.8" font-family="Times,serif" font-size="14.00">CustomErrorHandler</text>
</g>
<!-- CustomErrorHandler&#45;&gt;AppModule -->
<g id="edge28" class="edge">
<title>CustomErrorHandler&#45;&gt;AppModule</title>
<path fill="none" stroke="black" d="M4788,-122.25C4788,-145.02 4788,-181 4788,-181 4788,-181 2496.66,-181 2496.66,-181"/>
<polygon fill="black" stroke="black" points="2496.66,-177.5 2486.66,-181 2496.66,-184.5 2496.66,-177.5"/>
</g>
<!-- DeviceService -->
<g id="node30" class="node">
<title>DeviceService</title>
<ellipse fill="#fdb462" stroke="black" cx="4610" cy="-104" rx="67.17" ry="18"/>
<text text-anchor="middle" x="4610" y="-99.8" font-family="Times,serif" font-size="14.00">DeviceService</text>
</g>
<!-- DeviceService&#45;&gt;AppModule -->
<g id="edge29" class="edge">
<title>DeviceService&#45;&gt;AppModule</title>
<path fill="none" stroke="black" d="M4610,-122.29C4610,-144.21 4610,-178 4610,-178 4610,-178 2496.79,-178 2496.79,-178"/>
<polygon fill="black" stroke="black" points="2496.79,-174.5 2486.79,-178 2496.79,-181.5 2496.79,-174.5"/>
</g>
<!-- FloorService -->
<g id="node31" class="node">
<title>FloorService</title>
<ellipse fill="#fdb462" stroke="black" cx="4464" cy="-104" rx="60.83" ry="18"/>
<text text-anchor="middle" x="4464" y="-99.8" font-family="Times,serif" font-size="14.00">FloorService</text>
</g>
<!-- FloorService&#45;&gt;AppModule -->
<g id="edge30" class="edge">
<title>FloorService&#45;&gt;AppModule</title>
<path fill="none" stroke="black" d="M4464,-122.17C4464,-143.5 4464,-176 4464,-176 4464,-176 2496.71,-176 2496.71,-176"/>
<polygon fill="black" stroke="black" points="2496.71,-172.5 2486.71,-176 2496.71,-179.5 2496.71,-172.5"/>
</g>
<!-- LogService -->
<g id="node32" class="node">
<title>LogService</title>
<ellipse fill="#fdb462" stroke="black" cx="4330" cy="-104" rx="55.6" ry="18"/>
<text text-anchor="middle" x="4330" y="-99.8" font-family="Times,serif" font-size="14.00">LogService</text>
</g>
<!-- LogService&#45;&gt;AppModule -->
<g id="edge31" class="edge">
<title>LogService&#45;&gt;AppModule</title>
<path fill="none" stroke="black" d="M4330,-122.03C4330,-142.77 4330,-174 4330,-174 4330,-174 2497.01,-174 2497.01,-174"/>
<polygon fill="black" stroke="black" points="2497.01,-170.5 2487.01,-174 2497.01,-177.5 2497.01,-170.5"/>
</g>
<!-- ModelsService -->
<g id="node33" class="node">
<title>ModelsService</title>
<ellipse fill="#fdb462" stroke="black" cx="4187" cy="-104" rx="68.92" ry="18"/>
<text text-anchor="middle" x="4187" y="-99.8" font-family="Times,serif" font-size="14.00">ModelsService</text>
</g>
<!-- ModelsService&#45;&gt;AppModule -->
<g id="edge32" class="edge">
<title>ModelsService&#45;&gt;AppModule</title>
<path fill="none" stroke="black" d="M4187,-122.22C4187,-142.37 4187,-172 4187,-172 4187,-172 2496.77,-172 2496.77,-172"/>
<polygon fill="black" stroke="black" points="2496.77,-168.5 2486.77,-172 2496.77,-175.5 2496.77,-168.5"/>
</g>
</g>
</svg>
