<?xml version="1.0" encoding="UTF-8" standalone="no"?>
<!DOCTYPE svg PUBLIC "-//W3C//DTD SVG 1.1//EN"
 "http://www.w3.org/Graphics/SVG/1.1/DTD/svg11.dtd">
<!-- Generated by graphviz version 5.0.0 (20220707.1540)
 -->
<!-- Title: dependencies Pages: 1 -->
<svg width="1966pt" height="247pt"
 viewBox="0.00 0.00 1966.00 246.80" xmlns="http://www.w3.org/2000/svg" xmlns:xlink="http://www.w3.org/1999/xlink">
<g id="graph0" class="graph" transform="scale(1 1) rotate(0) translate(4 242.8)">
<title>dependencies</title>
<polygon fill="white" stroke="transparent" points="-4,4 -4,-242.8 1962,-242.8 1962,4 -4,4"/>
<text text-anchor="middle" x="979" y="-8.2" font-family="sans-serif" font-size="14.00">dependencies</text>
<g id="clust1" class="cluster">
<title>cluster_AppModule</title>
<polygon fill="none" stroke="black" stroke-dasharray="1,5" points="8,-32.8 8,-230.8 1950,-230.8 1950,-32.8 8,-32.8"/>
</g>
<g id="clust2" class="cluster">
<title>cluster_AppModule_declarations</title>
<polygon fill="none" stroke="black" points="464,-40.8 464,-92.8 1942,-92.8 1942,-40.8 464,-40.8"/>
</g>
<g id="clust13" class="cluster">
<title>cluster_AppModule_imports</title>
<polygon fill="none" stroke="black" points="312,-40.8 312,-92.8 456,-92.8 456,-40.8 312,-40.8"/>
</g>
<g id="clust14" class="cluster">
<title>cluster_AppModule_exports</title>
<polygon fill="none" stroke="black" points="792,-170.8 792,-222.8 938,-222.8 938,-170.8 792,-170.8"/>
</g>
<g id="clust15" class="cluster">
<title>cluster_AppModule_bootstrap</title>
<polygon fill="none" stroke="black" points="946,-170.8 946,-222.8 1070,-222.8 1070,-170.8 946,-170.8"/>
</g>
<g id="clust16" class="cluster">
<title>cluster_AppModule_providers</title>
<polygon fill="none" stroke="black" points="16,-40.8 16,-92.8 304,-92.8 304,-40.8 16,-40.8"/>
</g>
<!-- AddDeviceComponent -->
<g id="node1" class="node">
<title>AddDeviceComponent</title>
<polygon fill="#ffffb3" stroke="black" points="1933.58,-84.8 1788.42,-84.8 1788.42,-48.8 1933.58,-48.8 1933.58,-84.8"/>
<text text-anchor="middle" x="1861" y="-62.6" font-family="Times,serif" font-size="14.00">AddDeviceComponent</text>
</g>
<!-- AppModule -->
<g id="node11" class="node">
<title>AppModule</title>
<polygon fill="#8dd3c7" stroke="black" points="977.66,-149.8 974.66,-153.8 953.66,-153.8 950.66,-149.8 894.34,-149.8 894.34,-113.8 977.66,-113.8 977.66,-149.8"/>
<text text-anchor="middle" x="936" y="-127.6" font-family="Times,serif" font-size="14.00">AppModule</text>
</g>
<!-- AddDeviceComponent&#45;&gt;AppModule -->
<g id="edge1" class="edge">
<title>AddDeviceComponent&#45;&gt;AppModule</title>
<path fill="none" stroke="black" d="M1861,-84.89C1861,-107.93 1861,-144.8 1861,-144.8 1861,-144.8 987.85,-144.8 987.85,-144.8"/>
<polygon fill="black" stroke="black" points="987.85,-141.3 977.85,-144.8 987.85,-148.3 987.85,-141.3"/>
</g>
<!-- AppComponent -->
<g id="node2" class="node">
<title>AppComponent</title>
<polygon fill="#ffffb3" stroke="black" points="1770.94,-84.8 1665.06,-84.8 1665.06,-48.8 1770.94,-48.8 1770.94,-84.8"/>
<text text-anchor="middle" x="1718" y="-62.6" font-family="Times,serif" font-size="14.00">AppComponent</text>
</g>
<!-- AppComponent&#45;&gt;AppModule -->
<g id="edge2" class="edge">
<title>AppComponent&#45;&gt;AppModule</title>
<path fill="none" stroke="black" d="M1718,-84.84C1718,-106.46 1718,-139.8 1718,-139.8 1718,-139.8 987.77,-139.8 987.77,-139.8"/>
<polygon fill="black" stroke="black" points="987.77,-136.3 977.77,-139.8 987.77,-143.3 987.77,-136.3"/>
</g>
<!-- CubeComponent -->
<g id="node3" class="node">
<title>CubeComponent</title>
<polygon fill="#ffffb3" stroke="black" points="1647.38,-84.8 1536.62,-84.8 1536.62,-48.8 1647.38,-48.8 1647.38,-84.8"/>
<text text-anchor="middle" x="1592" y="-62.6" font-family="Times,serif" font-size="14.00">CubeComponent</text>
</g>
<!-- CubeComponent&#45;&gt;AppModule -->
<g id="edge3" class="edge">
<title>CubeComponent&#45;&gt;AppModule</title>
<path fill="none" stroke="black" d="M1592,-85.02C1592,-105.17 1592,-134.8 1592,-134.8 1592,-134.8 987.78,-134.8 987.78,-134.8"/>
<polygon fill="black" stroke="black" points="987.78,-131.3 977.78,-134.8 987.78,-138.3 987.78,-131.3"/>
</g>
<!-- DeviceOperationsComponent -->
<g id="node4" class="node">
<title>DeviceOperationsComponent</title>
<polygon fill="#ffffb3" stroke="black" points="1518.4,-84.8 1335.6,-84.8 1335.6,-48.8 1518.4,-48.8 1518.4,-84.8"/>
<text text-anchor="middle" x="1427" y="-62.6" font-family="Times,serif" font-size="14.00">DeviceOperationsComponent</text>
</g>
<!-- DeviceOperationsComponent&#45;&gt;AppModule -->
<g id="edge4" class="edge">
<title>DeviceOperationsComponent&#45;&gt;AppModule</title>
<path fill="none" stroke="black" d="M1427,-85.02C1427,-103.63 1427,-129.8 1427,-129.8 1427,-129.8 987.86,-129.8 987.86,-129.8"/>
<polygon fill="black" stroke="black" points="987.86,-126.3 977.86,-129.8 987.86,-133.3 987.86,-126.3"/>
</g>
<!-- DevicesComponent -->
<g id="node5" class="node">
<title>DevicesComponent</title>
<polygon fill="#ffffb3" stroke="black" points="1318.42,-84.8 1191.58,-84.8 1191.58,-48.8 1318.42,-48.8 1318.42,-84.8"/>
<text text-anchor="middle" x="1255" y="-62.6" font-family="Times,serif" font-size="14.00">DevicesComponent</text>
</g>
<!-- DevicesComponent&#45;&gt;AppModule -->
<g id="edge5" class="edge">
<title>DevicesComponent&#45;&gt;AppModule</title>
<path fill="none" stroke="black" d="M1255,-84.83C1255,-101.86 1255,-124.8 1255,-124.8 1255,-124.8 987.7,-124.8 987.7,-124.8"/>
<polygon fill="black" stroke="black" points="987.7,-121.3 977.7,-124.8 987.7,-128.3 987.7,-121.3"/>
</g>
<!-- DevicesListComponent -->
<g id="node6" class="node">
<title>DevicesListComponent</title>
<polygon fill="#ffffb3" stroke="black" points="1174.2,-84.8 1025.8,-84.8 1025.8,-48.8 1174.2,-48.8 1174.2,-84.8"/>
<text text-anchor="middle" x="1100" y="-62.6" font-family="Times,serif" font-size="14.00">DevicesListComponent</text>
</g>
<!-- DevicesListComponent&#45;&gt;AppModule -->
<g id="edge6" class="edge">
<title>DevicesListComponent&#45;&gt;AppModule</title>
<path fill="none" stroke="black" d="M1044.19,-85.04C1044.19,-100.37 1044.19,-119.8 1044.19,-119.8 1044.19,-119.8 987.83,-119.8 987.83,-119.8"/>
<polygon fill="black" stroke="black" points="987.83,-116.3 977.83,-119.8 987.83,-123.3 987.83,-116.3"/>
</g>
<!-- EditDeviceComponent -->
<g id="node7" class="node">
<title>EditDeviceComponent</title>
<polygon fill="#ffffb3" stroke="black" points="1008.3,-84.8 863.7,-84.8 863.7,-48.8 1008.3,-48.8 1008.3,-84.8"/>
<text text-anchor="middle" x="936" y="-62.6" font-family="Times,serif" font-size="14.00">EditDeviceComponent</text>
</g>
<!-- EditDeviceComponent&#45;&gt;AppModule -->
<g id="edge7" class="edge">
<title>EditDeviceComponent&#45;&gt;AppModule</title>
<path fill="none" stroke="black" d="M936,-84.91C936,-84.91 936,-103.79 936,-103.79"/>
<polygon fill="black" stroke="black" points="932.5,-103.79 936,-113.79 939.5,-103.79 932.5,-103.79"/>
</g>
<!-- HomeComponent -->
<g id="node8" class="node">
<title>HomeComponent</title>
<polygon fill="#ffffb3" stroke="black" points="845.55,-84.8 730.45,-84.8 730.45,-48.8 845.55,-48.8 845.55,-84.8"/>
<text text-anchor="middle" x="788" y="-62.6" font-family="Times,serif" font-size="14.00">HomeComponent</text>
</g>
<!-- HomeComponent&#45;&gt;AppModule -->
<g id="edge8" class="edge">
<title>HomeComponent&#45;&gt;AppModule</title>
<path fill="none" stroke="black" d="M822.91,-85.04C822.91,-100.37 822.91,-119.8 822.91,-119.8 822.91,-119.8 884.21,-119.8 884.21,-119.8"/>
<polygon fill="black" stroke="black" points="884.21,-123.3 894.21,-119.8 884.21,-116.3 884.21,-123.3"/>
</g>
<!-- LogComponent -->
<g id="node9" class="node">
<title>LogComponent</title>
<polygon fill="#ffffb3" stroke="black" points="711.88,-84.8 608.12,-84.8 608.12,-48.8 711.88,-48.8 711.88,-84.8"/>
<text text-anchor="middle" x="660" y="-62.6" font-family="Times,serif" font-size="14.00">LogComponent</text>
</g>
<!-- LogComponent&#45;&gt;AppModule -->
<g id="edge9" class="edge">
<title>LogComponent&#45;&gt;AppModule</title>
<path fill="none" stroke="black" d="M660,-84.83C660,-101.86 660,-124.8 660,-124.8 660,-124.8 884.08,-124.8 884.08,-124.8"/>
<polygon fill="black" stroke="black" points="884.08,-128.3 894.08,-124.8 884.08,-121.3 884.08,-128.3"/>
</g>
<!-- ModelComponent -->
<g id="node10" class="node">
<title>ModelComponent</title>
<polygon fill="#ffffb3" stroke="black" points="589.88,-84.8 472.12,-84.8 472.12,-48.8 589.88,-48.8 589.88,-84.8"/>
<text text-anchor="middle" x="531" y="-62.6" font-family="Times,serif" font-size="14.00">ModelComponent</text>
</g>
<!-- ModelComponent&#45;&gt;AppModule -->
<g id="edge10" class="edge">
<title>ModelComponent&#45;&gt;AppModule</title>
<path fill="none" stroke="black" d="M531,-85.02C531,-103.63 531,-129.8 531,-129.8 531,-129.8 884.18,-129.8 884.18,-129.8"/>
<polygon fill="black" stroke="black" points="884.18,-133.3 894.18,-129.8 884.18,-126.3 884.18,-133.3"/>
</g>
<!-- DevicesComponent  -->
<g id="node13" class="node">
<title>DevicesComponent </title>
<polygon fill="#fb8072" stroke="black" points="929.92,-214.8 800.08,-214.8 800.08,-178.8 929.92,-178.8 929.92,-214.8"/>
<text text-anchor="middle" x="865" y="-192.6" font-family="Times,serif" font-size="14.00">DevicesComponent </text>
</g>
<!-- AppModule&#45;&gt;DevicesComponent  -->
<g id="edge12" class="edge">
<title>AppModule&#45;&gt;DevicesComponent </title>
<path fill="none" stroke="black" stroke-dasharray="5,2" d="M912.06,-149.91C912.06,-149.91 912.06,-168.79 912.06,-168.79"/>
<polygon fill="black" stroke="black" points="908.56,-168.79 912.06,-178.79 915.56,-168.79 908.56,-168.79"/>
</g>
<!-- AppComponent  -->
<g id="node14" class="node">
<title>AppComponent </title>
<polygon fill="#80b1d3" stroke="black" points="1062.44,-214.8 953.56,-214.8 953.56,-178.8 1062.44,-178.8 1062.44,-214.8"/>
<text text-anchor="middle" x="1008" y="-192.6" font-family="Times,serif" font-size="14.00">AppComponent </text>
</g>
<!-- AppModule&#45;&gt;AppComponent  -->
<g id="edge13" class="edge">
<title>AppModule&#45;&gt;AppComponent </title>
<path fill="none" stroke="black" stroke-dasharray="1,5" d="M965.68,-149.91C965.68,-149.91 965.68,-168.79 965.68,-168.79"/>
<polygon fill="black" stroke="black" points="962.18,-168.79 965.68,-178.79 969.18,-168.79 962.18,-168.79"/>
</g>
<!-- AppRoutingModule -->
<g id="node12" class="node">
<title>AppRoutingModule</title>
<polygon fill="#8dd3c7" stroke="black" points="448.28,-84.8 445.28,-88.8 424.28,-88.8 421.28,-84.8 319.72,-84.8 319.72,-48.8 448.28,-48.8 448.28,-84.8"/>
<text text-anchor="middle" x="384" y="-62.6" font-family="Times,serif" font-size="14.00">AppRoutingModule</text>
</g>
<!-- AppRoutingModule&#45;&gt;AppModule -->
<g id="edge11" class="edge">
<title>AppRoutingModule&#45;&gt;AppModule</title>
<path fill="none" stroke="black" d="M384,-85.02C384,-105.17 384,-134.8 384,-134.8 384,-134.8 884.06,-134.8 884.06,-134.8"/>
<polygon fill="black" stroke="black" points="884.06,-138.3 894.06,-134.8 884.06,-131.3 884.06,-138.3"/>
</g>
<!-- DevicesService -->
<g id="node15" class="node">
<title>DevicesService</title>
<ellipse fill="#fdb462" stroke="black" cx="225" cy="-66.8" rx="71.19" ry="18"/>
<text text-anchor="middle" x="225" y="-62.6" font-family="Times,serif" font-size="14.00">DevicesService</text>
</g>
<!-- DevicesService&#45;&gt;AppModule -->
<g id="edge14" class="edge">
<title>DevicesService&#45;&gt;AppModule</title>
<path fill="none" stroke="black" d="M225,-84.84C225,-106.46 225,-139.8 225,-139.8 225,-139.8 884.18,-139.8 884.18,-139.8"/>
<polygon fill="black" stroke="black" points="884.18,-143.3 894.18,-139.8 884.18,-136.3 884.18,-143.3"/>
</g>
<!-- LogService -->
<g id="node16" class="node">
<title>LogService</title>
<ellipse fill="#fdb462" stroke="black" cx="80" cy="-66.8" rx="55.6" ry="18"/>
<text text-anchor="middle" x="80" y="-62.6" font-family="Times,serif" font-size="14.00">LogService</text>
</g>
<!-- LogService&#45;&gt;AppModule -->
<g id="edge15" class="edge">
<title>LogService&#45;&gt;AppModule</title>
<path fill="none" stroke="black" d="M80,-84.89C80,-107.93 80,-144.8 80,-144.8 80,-144.8 884.13,-144.8 884.13,-144.8"/>
<polygon fill="black" stroke="black" points="884.13,-148.3 894.13,-144.8 884.13,-141.3 884.13,-148.3"/>
</g>
</g>
</svg>
